<?xml version="1.0" encoding="UTF-8"?>
<svg xmlns="http://www.w3.org/2000/svg" viewBox="0 0 248 80" width="248" height="80" role="img" aria-labelledby="cf4LogoTitle">
  <title id="cf4LogoTitle">Ciclo Finca 4</title>
  <defs>
    <radialGradient id="cf4_chainGrad" cx="50%" cy="35%" r="60%">
      <stop offset="0%" stop-color="#d0d0d0"/>
      <stop offset="100%" stop-color="#888888"/>
    </radialGradient>
    <clipPath id="cf4_innerClip">
      <circle cx="40" cy="40" r="23.5"/>
    </clipPath>
  </defs>

  <!-- Emblema: cadena + escena interior (sin fondo propio) -->
  <circle cx="40" cy="40" r="33" fill="none" stroke="#c8e6c9" stroke-width="0.75" opacity="0.9"/>
  <g fill="url(#cf4_chainGrad)" stroke="#666" stroke-width="0.4">
    <ellipse cx="40" cy="9" rx="4" ry="2.5" transform="rotate(0,40,40)"/>
    <ellipse cx="40" cy="9" rx="4" ry="2.5" transform="rotate(15,40,40)"/>
    <ellipse cx="40" cy="9" rx="4" ry="2.5" transform="rotate(30,40,40)"/>
    <ellipse cx="40" cy="9" rx="4" ry="2.5" transform="rotate(45,40,40)"/>
    <ellipse cx="40" cy="9" rx="4" ry="2.5" transform="rotate(60,40,40)"/>
    <ellipse cx="40" cy="9" rx="4" ry="2.5" transform="rotate(75,40,40)"/>
    <ellipse cx="40" cy="9" rx="4" ry="2.5" transform="rotate(90,40,40)"/>
    <ellipse cx="40" cy="9" rx="4" ry="2.5" transform="rotate(105,40,40)"/>
    <ellipse cx="40" cy="9" rx="4" ry="2.5" transform="rotate(120,40,40)"/>
    <ellipse cx="40" cy="9" rx="4" ry="2.5" transform="rotate(135,40,40)"/>
    <ellipse cx="40" cy="9" rx="4" ry="2.5" transform="rotate(150,40,40)"/>
    <ellipse cx="40" cy="9" rx="4" ry="2.5" transform="rotate(165,40,40)"/>
    <ellipse cx="40" cy="9" rx="4" ry="2.5" transform="rotate(180,40,40)"/>
    <ellipse cx="40" cy="9" rx="4" ry="2.5" transform="rotate(195,40,40)"/>
    <ellipse cx="40" cy="9" rx="4" ry="2.5" transform="rotate(210,40,40)"/>
    <ellipse cx="40" cy="9" rx="4" ry="2.5" transform="rotate(225,40,40)"/>
    <ellipse cx="40" cy="9" rx="4" ry="2.5" transform="rotate(240,40,40)"/>
    <ellipse cx="40" cy="9" rx="4" ry="2.5" transform="rotate(255,40,40)"/>
    <ellipse cx="40" cy="9" rx="4" ry="2.5" transform="rotate(270,40,40)"/>
    <ellipse cx="40" cy="9" rx="4" ry="2.5" transform="rotate(285,40,40)"/>
    <ellipse cx="40" cy="9" rx="4" ry="2.5" transform="rotate(300,40,40)"/>
    <ellipse cx="40" cy="9" rx="4" ry="2.5" transform="rotate(315,40,40)"/>
    <ellipse cx="40" cy="9" rx="4" ry="2.5" transform="rotate(330,40,40)"/>
    <ellipse cx="40" cy="9" rx="4" ry="2.5" transform="rotate(345,40,40)"/>
  </g>
  <g fill="#999">
    <circle cx="40" cy="9" r="1.2" transform="rotate(7.5,40,40)"/>
    <circle cx="40" cy="9" r="1.2" transform="rotate(22.5,40,40)"/>
    <circle cx="40" cy="9" r="1.2" transform="rotate(37.5,40,40)"/>
    <circle cx="40" cy="9" r="1.2" transform="rotate(52.5,40,40)"/>
    <circle cx="40" cy="9" r="1.2" transform="rotate(67.5,40,40)"/>
    <circle cx="40" cy="9" r="1.2" transform="rotate(82.5,40,40)"/>
    <circle cx="40" cy="9" r="1.2" transform="rotate(97.5,40,40)"/>
    <circle cx="40" cy="9" r="1.2" transform="rotate(112.5,40,40)"/>
    <circle cx="40" cy="9" r="1.2" transform="rotate(127.5,40,40)"/>
    <circle cx="40" cy="9" r="1.2" transform="rotate(142.5,40,40)"/>
    <circle cx="40" cy="9" r="1.2" transform="rotate(157.5,40,40)"/>
    <circle cx="40" cy="9" r="1.2" transform="rotate(172.5,40,40)"/>
    <circle cx="40" cy="9" r="1.2" transform="rotate(187.5,40,40)"/>
    <circle cx="40" cy="9" r="1.2" transform="rotate(202.5,40,40)"/>
    <circle cx="40" cy="9" r="1.2" transform="rotate(217.5,40,40)"/>
    <circle cx="40" cy="9" r="1.2" transform="rotate(232.5,40,40)"/>
    <circle cx="40" cy="9" r="1.2" transform="rotate(247.5,40,40)"/>
    <circle cx="40" cy="9" r="1.2" transform="rotate(262.5,40,40)"/>
    <circle cx="40" cy="9" r="1.2" transform="rotate(277.5,40,40)"/>
    <circle cx="40" cy="9" r="1.2" transform="rotate(292.5,40,40)"/>
    <circle cx="40" cy="9" r="1.2" transform="rotate(307.5,40,40)"/>
    <circle cx="40" cy="9" r="1.2" transform="rotate(322.5,40,40)"/>
    <circle cx="40" cy="9" r="1.2" transform="rotate(337.5,40,40)"/>
    <circle cx="40" cy="9" r="1.2" transform="rotate(352.5,40,40)"/>
  </g>
  <g clip-path="url(#cf4_innerClip)">
    <rect x="16" y="16" width="48" height="48" fill="#f5f5f5"/>
    <polygon points="20,54 30,35 40,48" fill="#b8c4d4"/>
    <polygon points="28,38 30,35 32,38" fill="white"/>
    <polygon points="26,54 38,29 50,54" fill="#c8d4e0"/>
    <polygon points="35,33 38,29 41,33" fill="white"/>
    <polygon points="36,54 50,39 62,54" fill="#a8b8c8"/>
    <rect x="16" y="53" width="48" height="3" fill="#d0d8e4" opacity="0.6"/>
    <circle cx="34" cy="50" r="5" fill="none" stroke="#222" stroke-width="1.2"/>
    <circle cx="46" cy="50" r="5" fill="none" stroke="#222" stroke-width="1.2"/>
    <circle cx="34" cy="50" r="1" fill="#222"/>
    <circle cx="46" cy="50" r="1" fill="#222"/>
    <line x1="34" y1="50" x2="40" y2="42" stroke="#222" stroke-width="1.2" stroke-linecap="round"/>
    <line x1="40" y1="42" x2="46" y2="50" stroke="#222" stroke-width="1.2" stroke-linecap="round"/>
    <line x1="40" y1="42" x2="37" y2="50" stroke="#222" stroke-width="1.1" stroke-linecap="round"/>
    <line x1="40" y1="42" x2="41" y2="38" stroke="#222" stroke-width="1.1" stroke-linecap="round"/>
    <line x1="46" y1="50" x2="44" y2="42" stroke="#222" stroke-width="1.1" stroke-linecap="round"/>
    <line x1="44" y1="42" x2="47" y2="41" stroke="#222" stroke-width="1.2" stroke-linecap="round"/>
    <line x1="41" y1="38" x2="44" y2="42" stroke="#222" stroke-width="1.4" stroke-linecap="round"/>
    <circle cx="42" cy="37" r="2.2" fill="#222"/>
    <line x1="43" y1="39" x2="46" y2="41" stroke="#222" stroke-width="1.1" stroke-linecap="round"/>
    <line x1="41" y1="43" x2="38" y2="47" stroke="#222" stroke-width="1.2" stroke-linecap="round"/>
    <line x1="41" y1="43" x2="44" y2="47" stroke="#222" stroke-width="1.2" stroke-linecap="round"/>
    <circle cx="40" cy="45" r="2" fill="none" stroke="#333" stroke-width="0.8"/>
  </g>

  <!-- Texto de marca (alineado a la estética verde del sitio) -->
  <text x="86" y="49" font-family="Poppins, system-ui, -apple-system, sans-serif" font-size="21" font-weight="700" letter-spacing="0.02em" fill="#2e7d32">CICLO FINCA 4</text>
</svg>
